<svg width="51" height="91" viewBox="0 0 51 91" fill="none" xmlns="http://www.w3.org/2000/svg">
<path d="M39.752 91C36.808 83.192 37.704 75.64 37.96 67.32C31.944 67.32 25.8 67.32 19.656 67.32C15.944 75.128 11.464 82.296 10.952 91C7.496 91 4.04 91 0.584 91C1.224 82.04 5.96 74.744 9.672 66.68C12.744 59.768 13.128 53.24 12.744 45.816C12.232 38.392 12.744 31.736 15.816 24.824C19.4 16.888 24.264 9.592 24.904 0.503998C27.976 0.503998 31.048 0.503998 34.12 0.503998C37.192 8.952 35.784 16.888 35.784 25.592C35.912 33.016 38.728 39.288 42.056 45.816C45.384 52.344 48.2 58.616 48.328 66.04C48.456 74.744 46.92 82.68 50.12 91C46.664 91 43.208 91 39.752 91ZM36.808 57.208C33.352 46.584 26.056 37.752 25.544 26.232C23.496 31.352 22.6 36.216 22.856 41.72C22.984 46.968 23.496 51.96 22.984 57.208C27.592 57.208 32.2 57.208 36.808 57.208Z" fill="white"/>
</svg>
