<svg width="1017" height="218" viewBox="0 0 1017 218" fill="none" xmlns="http://www.w3.org/2000/svg">
<path d="M119.5 218H92.5L92.2 217.4C86.2 201.5 87.1 186.2 87.7 170.3C88 167.6 88 165.2 88 162.5H47.2C45.7 165.8 44.2 169.1 42.4 172.1C35.2 186.8 28.3 200.6 27.1 217.1V218H0.4V216.8C1.6 200.6 8.5 186.2 15.4 172.4C17.5 168.2 19.9 164 21.7 159.5C29.5 142.1 29.8 125.9 28.9 110.9C28.3 101 28.6 92.9 29.5 85.7C30.4 77 32.8 69.2 36.4 61.4C38.2 56.9 40.6 52.4 42.7 48.2C49.6 34.1 56.5 20.6 57.4 4.69999L57.7 3.49999H81.1L81.4 4.4C86.8 19.4 86.2 33.2 85.9 48.2C85.6 53 85.3 58.4 85.6 63.5C85.6 80.6 92.5 95.6 100 110.3C107.8 125.3 114.7 140.6 114.7 158.3C115 163.4 114.7 168.8 114.4 173.6C114.1 188.3 113.5 202.1 118.9 216.5L119.5 218ZM94.3 215.6H115.9C111.1 201.5 111.7 188 112 173.6C112.3 168.5 112.6 163.4 112.3 158.3C112.3 140.9 105.4 126.2 97.9 111.5C90.1 96.2 83.2 81.2 83.2 63.5C82.9 58.1 83.2 53 83.5 47.9C83.8 33.8 84.4 20.3 79.3 5.89999H59.8C58.3 21.8 51.4 35.9 44.8 49.4C42.7 53.6 40.6 57.8 38.5 62.3C30.7 79.4 30.4 95.9 31.3 110.9C31.9 120.8 31.9 128.9 30.7 136.1C29.8 144.8 27.4 152.6 24.1 160.4C22 164.9 19.9 169.4 17.5 173.6C10.9 187.4 4.3 200.3 2.8 215.6H24.7C26.2 199.4 33.4 185 40.3 170.9C42.1 167.6 43.6 164.3 45.4 161L45.7 160.1H90.7V161.3C90.4 164.3 90.4 167.3 90.1 170.3C89.5 185.9 88.9 200.6 94.3 215.6ZM88.3 138.8H52.6L52.9 137.6C53.8 128.6 53.5 119.3 52.9 110.6C52.9 107.6 52.6 104.6 52.6 101.3C52 88.1 54.1 76.4 58.9 64.7L61.3 65C61.9 81.8 69.1 96.2 76.3 110.9C80.5 119.3 84.7 128 87.7 137.3L88.3 138.8ZM55.3 136.4H85C82 128 78.1 119.9 74.2 112.1C67.9 99.2 61.3 85.7 59.5 70.4C55.9 80.3 54.7 90.2 55 101.3C55 104.3 55.3 107.6 55.3 110.6C55.9 119 56.2 127.7 55.3 136.4ZM247.338 218H223.038L222.738 217.4C216.738 206 213.138 194 211.638 179C211.338 177.2 211.338 175.1 211.038 173.3C210.138 164.6 209.238 155.3 206.538 146.6C202.638 133.4 194.838 122 187.338 110.6C181.338 101.6 175.038 92.3 170.538 82.4C171.438 91.7 173.838 100.7 176.238 109.7C179.538 121.4 183.138 133.7 182.238 146.3C181.638 156.5 178.938 166.1 176.538 175.4C172.638 189.2 169.338 202.1 171.438 216.8L171.738 218H145.338V217.1C142.938 201.5 146.538 187.7 150.438 173C151.938 168.2 153.138 163.1 154.338 158C157.938 140.9 154.338 125.6 150.138 111.2C146.238 96.5 142.338 80.9 146.238 63.2C147.138 58.1 148.638 53 149.838 48.2C153.738 33.8 157.338 20.3 155.238 4.99999L154.938 3.49999H179.238L179.538 4.09998C185.838 15.8 189.138 27.8 190.638 42.8C190.938 44.6 191.238 46.4 191.238 47.9C192.138 57.2 193.038 66.5 195.738 75.2C199.938 88.4 207.738 99.8 215.238 111.2C221.238 120.2 227.538 129.5 231.738 139.7C231.138 130.4 228.738 121.1 226.038 112.1C223.038 100.4 219.438 88.1 220.338 75.5C220.938 65.3 223.638 55.7 226.038 46.4C229.938 32.6 233.538 19.7 231.138 4.99999V3.49999H257.238V4.69999C259.638 20.3 256.038 34.1 252.138 48.8C250.638 53.6 249.438 58.7 248.238 63.8C244.638 80.6 248.238 96.2 252.138 110.6C256.338 125.3 260.238 140.9 256.338 158.6C255.138 163.7 253.938 168.8 252.438 173.6C248.538 188 244.938 201.5 247.338 216.8V218ZM224.538 215.9H244.638C242.838 200.6 246.438 187.1 250.338 173C251.538 168.2 252.738 163.1 253.938 158C257.538 140.9 253.938 125.6 250.038 111.2C245.838 96.5 242.238 80.9 245.838 63.2C247.038 58.1 248.538 53 249.738 48.2C253.638 34.1 256.938 20.9 255.138 5.89999H233.838C235.638 20.6 232.038 34.1 228.438 47C226.038 56.3 223.338 65.9 222.738 75.8C222.138 87.8 225.438 99.8 228.438 111.5C231.738 122.6 234.738 134.3 234.438 146.6L232.038 146.9C227.838 134.3 220.338 123.2 213.138 112.4C205.638 101 197.838 89.3 193.638 76.1C190.638 66.8 189.738 57.5 188.838 48.2C188.838 46.4 188.538 44.9 188.238 43.1C186.738 28.4 183.738 17 177.738 5.89999H157.638C159.738 21.2 156.138 34.7 152.238 48.8C151.038 53.6 149.538 58.7 148.638 63.8C144.738 80.6 148.638 96.2 152.538 110.6C156.738 125.3 160.338 140.9 156.738 158.6C155.538 163.7 154.338 168.8 152.838 173.6C149.238 187.7 145.638 200.9 147.438 215.9H168.738C166.938 201.2 170.538 187.7 174.138 174.8C176.538 165.5 179.238 155.9 179.838 146.3C180.438 134 177.138 122 174.138 110.3C170.838 99.2 167.838 87.5 168.138 75.5L170.538 75.2C174.738 87.5 181.938 98.6 189.138 109.4C196.938 120.8 204.738 132.5 208.938 146C211.638 154.7 212.538 164 213.438 173C213.738 175.1 213.738 176.9 214.038 178.7C215.538 193.4 218.838 204.8 224.538 215.9ZM338.008 218C323.908 218 309.508 212.6 300.808 203.3C292.108 194.6 289.408 182.3 293.308 167.3C296.008 157.7 298.408 147.2 297.808 136.4C297.208 128 294.808 119.3 292.408 111.2L291.508 108.2C289.408 100.4 287.008 92.6 286.108 84.2C285.208 72.5 287.908 61.4 290.608 50.9C294.208 38.6 302.008 26 312.808 15.5C322.408 5.89999 334.708 0.499993 347.308 0.799989C361.708 0.799989 374.908 4.4 386.008 11.3C387.208 11.9 387.508 12.2 388.708 13.1L389.308 13.4V14C389.308 25.1 386.608 35.6 383.908 45.2L383.308 47.3L381.808 45.8C378.808 42.2 376.408 39.8 374.308 37.4C370.108 32.6 362.308 27.2 347.608 26.9C341.308 26.9 334.408 29.3 328.708 34.1C322.708 38.9 318.508 44.9 316.708 51.5C314.008 61.7 311.308 72.8 312.508 83.9C313.108 92 315.508 99.8 317.608 107.6L318.508 110.6C320.908 118.7 323.308 127.4 323.908 136.4C324.808 147.5 322.108 158 319.408 167.9C317.608 175.4 318.508 180.8 321.808 185C326.008 190.7 333.508 191.9 337.408 191.9C345.208 192.2 353.608 190.1 361.108 186.2C362.008 182.3 363.208 178.4 364.108 174.5C368.308 159.2 372.208 144.5 369.508 128.3H340.408L340.108 127.4C338.608 120.5 336.808 113.6 334.708 107C334.408 106.1 334.108 104.9 333.808 104L333.508 102.5H389.008L389.308 103.4C389.608 104.3 389.908 105.5 390.208 106.4C394.408 120.8 398.608 135.8 396.208 151.4C395.008 158.9 392.908 166.4 390.808 173.6C388.708 181.7 386.308 190.1 385.108 198.8V199.4L384.808 199.7C383.908 200.3 383.608 200.6 382.708 201.2C368.908 212.3 355.408 217.4 339.508 218H338.008ZM346.708 3.19999C335.008 3.19999 323.608 7.99999 314.308 17.3C303.808 27.5 296.308 39.8 293.008 51.5C290.008 61.7 287.608 72.8 288.508 83.9C289.408 92 291.508 99.8 293.908 107.6L294.808 110.6C296.908 118.7 299.608 127.4 300.208 136.4C300.808 147.5 298.408 158 295.708 167.9C292.108 182 294.208 193.4 302.308 201.8C310.708 210.2 324.508 215.6 337.708 215.6H338.008C354.208 215.3 367.408 210.5 381.208 199.4C381.808 198.8 382.408 198.5 383.008 197.9C383.908 189.5 386.308 181.1 388.708 173C390.508 165.8 392.608 158.3 393.808 151.1C396.208 135.8 392.008 122 387.808 107C387.808 106.4 387.508 105.5 387.208 104.9H336.808C336.808 105.5 336.808 105.8 337.108 106.4C338.908 112.7 340.708 119.3 342.208 125.9H371.608L371.908 127.1C374.908 144.2 370.708 159.2 366.508 175.1C365.308 179.3 364.408 183.2 363.208 187.4V187.7L362.608 188C354.508 192.5 345.808 194.6 337.408 194.3C332.908 194.3 324.808 193.1 319.708 186.5C314.908 180.2 315.808 172.7 317.008 167.6V167.3C319.708 157.7 322.108 147.2 321.508 136.4C320.908 128 318.508 119.3 316.108 111.2L315.208 108.2C313.108 100.4 310.708 92.6 310.108 84.2C308.908 72.5 311.608 61.4 314.308 50.9C316.408 44 320.908 37.4 327.208 32.3C333.508 27.2 340.708 24.5 347.608 24.5C363.208 24.8 371.608 30.8 376.108 35.9C377.908 37.7 379.708 39.8 382.108 42.5C384.508 33.8 386.608 24.5 386.908 14.6C386.008 14.3 385.708 13.7 384.808 13.4C374.008 6.79998 361.408 3.19999 347.308 3.19999C347.008 3.19999 347.008 3.19999 346.708 3.19999ZM480.803 218C466.403 218 452.603 212.6 443.603 203.3C434.603 194.3 432.203 181.4 436.103 167.3C440.903 149.9 441.503 137 438.503 123.8C437.303 119 436.103 114.2 434.603 109.7C432.503 101.9 430.103 93.8 429.203 85.7C427.403 71.6 431.003 58.1 434.603 45.2C438.203 31.7 441.803 17.9 439.703 3.49999L439.403 1.99999H465.503L465.803 3.19999C467.903 17.9 464.303 32 460.703 45.8C457.103 58.4 453.803 71.6 455.303 85.4C456.203 93.5 458.603 101.3 460.703 109.1C462.203 113.6 463.403 118.4 464.603 123.2C468.503 140.3 465.503 155.3 462.203 167.9C460.403 174.2 461.303 180.2 464.903 185C468.203 189.5 473.903 191.9 480.203 191.9C486.803 191.9 493.703 189.5 499.403 184.7C505.103 179.9 509.303 173.6 511.103 167.3C515.903 149.9 516.503 137 513.503 123.8C512.603 119 511.103 114.2 509.903 109.7C507.503 101.9 505.103 93.8 504.203 85.7C502.703 71.6 506.303 58.1 509.603 45.2C513.203 31.7 516.803 17.9 514.703 3.49999L514.403 1.99999H540.503L540.803 3.19999C542.903 17.9 539.303 32 535.703 45.8C532.403 58.4 528.803 71.6 530.303 85.4C531.203 93.5 533.603 101.3 536.003 109.1C537.203 113.6 538.403 118.4 539.603 123.2C543.503 140.3 540.503 155.3 537.203 167.9C533.603 180.5 526.103 192.8 516.503 202.1C509.003 209.3 496.703 218 480.803 218ZM442.103 4.4C443.903 18.8 440.303 32.6 436.703 45.8C433.403 58.4 429.803 71.6 431.603 85.4C432.503 93.5 434.903 101.3 437.003 109.1C438.503 113.6 439.703 118.4 440.903 123.2C444.803 140.3 441.803 155.3 438.503 167.9C434.603 181.1 437.003 193.1 445.403 201.5C453.803 210.2 467.303 215.6 480.803 215.6C495.803 215.6 507.803 207.5 515.003 200.3C524.303 191.6 531.503 179.3 534.803 167.3C539.603 149.9 540.203 137 537.203 123.8C536.303 119 534.803 114.2 533.603 109.7C531.203 101.9 529.103 93.8 527.903 85.7C526.403 71.6 530.003 58.1 533.303 44.9C536.903 32 540.503 18.5 538.703 4.4H517.103C518.903 18.8 515.303 32.6 512.003 45.8C508.403 58.4 505.103 71.6 506.603 85.4C507.503 93.5 509.903 101.3 512.003 109.1C513.503 113.6 514.703 118.4 515.903 123.2C519.803 140.3 516.803 155.3 513.503 167.9C511.403 174.8 507.203 181.4 500.903 186.5C494.603 191.6 487.403 194.3 480.203 194.3C473.003 194.3 466.703 191.6 462.803 186.2C458.903 181.1 458.003 174.2 459.803 167.3C464.603 149.9 465.203 137 462.203 123.8C461.003 119 459.803 114.2 458.603 109.7C456.203 101.9 453.803 93.8 452.903 85.7C451.403 71.6 454.703 58.1 458.303 44.9C461.603 32 465.203 18.5 463.403 4.4H442.103ZM651.616 218L651.316 217.7C644.416 205.7 639.916 193.1 637.216 176.6C635.116 163.1 632.416 149.9 626.116 137.3C624.916 137.3 623.416 137.3 622.216 137.3H612.316C612.916 150.2 609.616 162.5 606.616 174.5C603.016 188 599.416 202.1 601.516 216.8L601.816 218H575.416V217.1C573.016 201.5 576.616 187.7 580.516 173C582.016 168.2 583.216 163.1 584.416 158C588.016 140.9 584.416 125.6 580.216 111.2C576.316 96.5 572.416 80.6 576.316 63.2C577.216 58.1 578.716 53 579.916 48.2C583.816 33.8 587.416 20.3 585.316 4.99999L585.016 3.49999H620.416C626.116 3.79999 637.216 4.69999 648.316 8.89999C658.816 13.1 666.016 19.4 669.916 27.2C675.316 39.2 673.516 52.7 671.416 65.6C671.116 67.4 671.116 68.9 670.816 70.7C670.216 75.5 669.916 80.6 669.616 85.7C669.016 95 668.716 104.6 665.416 113.6C663.916 117.8 660.916 123.8 650.716 130.1C657.916 142.1 662.116 155 665.116 173C667.516 186.8 670.516 201.5 679.516 216.2L680.416 218H651.616ZM627.616 134.6L627.916 135.2C634.816 148.4 637.516 162.2 639.616 176.3C642.316 192.2 646.516 204.5 653.116 215.6H676.216C668.116 201.2 664.816 186.8 662.716 173.6C659.716 155.3 655.516 142.4 648.016 130.4L647.416 129.2L648.616 128.6C656.416 123.8 660.916 119 663.316 112.7C666.316 104.3 666.616 94.7 667.216 85.7C667.516 80.6 667.816 75.2 668.416 70.4C668.716 68.6 669.016 67.1 669.016 65.3C671.116 52.7 672.916 39.8 667.516 28.1C664.216 20.9 657.316 15.2 647.416 11.3C636.916 6.79998 625.816 6.19999 620.416 5.89999H587.716C589.816 21.2 586.216 34.7 582.316 48.8C581.116 53.6 579.616 58.7 578.716 63.8C574.816 80.6 578.716 96.2 582.616 110.6C586.816 125.3 590.416 140.9 586.816 158.6C585.616 163.7 584.416 168.8 582.916 173.6C579.316 187.7 575.716 200.9 577.516 215.6H598.816C597.016 201.2 600.616 187.4 604.216 173.9C610.516 149.3 610.216 142.7 609.616 136.1V134.9H622.216C623.716 134.9 625.216 134.9 626.716 134.6H627.616ZM615.616 113.6H604.816L604.516 112.7C600.616 99.2 596.716 85.1 598.816 70.4C599.716 62 602.116 54.2 604.216 46.4C606.016 40.4 607.816 34.4 609.016 28.1V27.2H620.716C624.616 27.5 630.316 28.1 635.716 29.9C641.416 32.3 645.316 35.6 646.816 40.1C650.116 49.1 648.616 58.7 647.416 68C647.416 68.9 647.116 69.8 647.116 70.7C646.816 73.1 646.516 76.1 646.216 78.8C645.316 86 644.416 93.8 642.016 100.7C638.416 110.6 625.816 113.3 615.916 113.6H615.616ZM606.616 111.2H615.616C632.416 110.6 637.816 104.6 639.616 100.1C642.316 93.2 642.916 85.7 643.816 78.5C644.116 75.8 644.416 73.1 644.716 70.4C644.716 69.5 645.016 68.6 645.016 67.7C646.216 58.7 647.716 49.4 644.716 41C641.416 31.7 626.716 29.9 620.716 29.6H611.116C609.916 35.6 608.116 41.3 606.616 47C604.516 54.8 602.116 62.6 601.216 70.7C599.116 84.8 602.716 98.3 606.616 111.2ZM781.694 218L781.394 217.7C774.494 205.7 769.994 193.1 767.294 176.6C765.194 163.1 762.494 149.9 756.194 137.3C754.994 137.3 753.494 137.3 752.294 137.3H742.394C742.994 150.2 739.694 162.5 736.694 174.5C733.094 188 729.494 202.1 731.594 216.8L731.894 218H705.494V217.1C703.094 201.5 706.694 187.7 710.594 173C712.094 168.2 713.294 163.1 714.494 158C718.094 140.9 714.494 125.6 710.294 111.2C706.394 96.5 702.494 80.6 706.394 63.2C707.294 58.1 708.794 53 709.994 48.2C713.894 33.8 717.494 20.3 715.394 4.99999L715.094 3.49999H750.494C756.194 3.79999 767.294 4.69999 778.394 8.89999C788.894 13.1 796.094 19.4 799.994 27.2C805.394 39.2 803.594 52.7 801.494 65.6C801.194 67.4 801.194 68.9 800.894 70.7C800.294 75.5 799.994 80.6 799.694 85.7C799.094 95 798.794 104.6 795.494 113.6C793.994 117.8 790.994 123.8 780.794 130.1C787.994 142.1 792.194 155 795.194 173C797.594 186.8 800.594 201.5 809.594 216.2L810.494 218H781.694ZM757.694 134.6L757.994 135.2C764.894 148.4 767.594 162.2 769.694 176.3C772.394 192.2 776.594 204.5 783.194 215.6H806.294C798.194 201.2 794.894 186.8 792.794 173.6C789.794 155.3 785.594 142.4 778.094 130.4L777.494 129.2L778.694 128.6C786.494 123.8 790.994 119 793.394 112.7C796.394 104.3 796.694 94.7 797.294 85.7C797.594 80.6 797.894 75.2 798.494 70.4C798.794 68.6 799.094 67.1 799.094 65.3C801.194 52.7 802.994 39.8 797.594 28.1C794.294 20.9 787.394 15.2 777.494 11.3C766.994 6.79998 755.894 6.19999 750.494 5.89999H717.794C719.894 21.2 716.294 34.7 712.394 48.8C711.194 53.6 709.694 58.7 708.794 63.8C704.894 80.6 708.794 96.2 712.694 110.6C716.894 125.3 720.494 140.9 716.894 158.6C715.694 163.7 714.494 168.8 712.994 173.6C709.394 187.7 705.794 200.9 707.594 215.6H728.894C727.094 201.2 730.694 187.4 734.294 173.9C740.594 149.3 740.294 142.7 739.694 136.1V134.9H752.294C753.794 134.9 755.294 134.9 756.794 134.6H757.694ZM745.694 113.6H734.894L734.594 112.7C730.694 99.2 726.794 85.1 728.894 70.4C729.794 62 732.194 54.2 734.294 46.4C736.094 40.4 737.894 34.4 739.094 28.1V27.2H750.794C754.694 27.5 760.394 28.1 765.794 29.9C771.494 32.3 775.394 35.6 776.894 40.1C780.194 49.1 778.694 58.7 777.494 68C777.494 68.9 777.194 69.8 777.194 70.7C776.894 73.1 776.594 76.1 776.294 78.8C775.394 86 774.494 93.8 772.094 100.7C768.494 110.6 755.894 113.3 745.994 113.6H745.694ZM736.694 111.2H745.694C762.494 110.6 767.894 104.6 769.694 100.1C772.394 93.2 772.994 85.7 773.894 78.5C774.194 75.8 774.494 73.1 774.794 70.4C774.794 69.5 775.094 68.6 775.094 67.7C776.294 58.7 777.794 49.4 774.794 41C771.494 31.7 756.794 29.9 750.794 29.6H741.194C739.994 35.6 738.194 41.3 736.694 47C734.594 54.8 732.194 62.6 731.294 70.7C729.194 84.8 732.794 98.3 736.694 111.2ZM861.972 218H835.572V217.1C833.172 201.5 836.772 187.7 840.672 173C842.172 168.2 843.372 163.1 844.572 158C848.172 140.9 844.572 125.6 840.372 111.2C836.472 96.5 832.572 80.9 836.472 63.2C837.372 58.1 838.872 53 840.072 48.2C843.972 33.8 847.572 20.3 845.472 4.99999L845.172 3.49999H871.272L871.572 4.69999C873.972 20.3 870.072 34.1 866.172 48.8C864.972 53.6 863.472 58.7 862.572 63.8C858.972 80.6 862.572 96.2 866.472 110.6C870.672 125.3 874.572 140.9 870.672 158.6C869.472 163.7 868.272 168.8 866.772 173.6C863.172 188 859.572 201.5 861.672 216.8L861.972 218ZM837.672 215.6H859.272C857.172 200.6 860.772 187.1 864.672 173C865.872 168.2 867.372 163.1 868.272 158C871.872 140.9 868.272 125.6 864.372 111.2C860.172 96.5 856.272 80.9 860.172 63.2C861.372 58.1 862.572 53 864.072 48.2C867.672 34.1 871.272 20.9 869.172 5.89999H847.872C849.972 21.2 846.372 34.7 842.472 48.8C841.272 53.6 839.772 58.7 838.872 63.8C834.972 80.6 838.872 96.2 842.772 110.6C846.972 125.3 850.572 140.9 846.972 158.6C845.772 163.7 844.572 168.8 843.072 173.6C839.472 187.7 835.872 200.9 837.672 215.6ZM1016.86 218H989.863L989.563 217.4C983.563 201.5 984.463 186.2 985.063 170.3C985.363 167.6 985.363 165.2 985.363 162.5H944.563C943.063 165.8 941.563 169.1 939.763 172.1C932.563 186.8 925.663 200.6 924.463 217.1V218H897.763V216.8C898.963 200.6 905.863 186.2 912.763 172.4C914.863 168.2 917.263 164 919.063 159.5C926.863 142.1 927.163 125.9 926.263 110.9C925.663 101 925.963 92.9 926.863 85.7C927.763 77 930.163 69.2 933.763 61.4C935.563 56.9 937.963 52.4 940.063 48.2C946.963 34.1 953.863 20.6 954.763 4.69999L955.063 3.49999H978.463L978.763 4.4C984.163 19.4 983.563 33.2 983.263 48.2C982.963 53 982.663 58.4 982.963 63.5C982.963 80.6 989.863 95.6 997.363 110.3C1005.16 125.3 1012.06 140.6 1012.06 158.3C1012.36 163.4 1012.06 168.8 1011.76 173.6C1011.46 188.3 1010.86 202.1 1016.26 216.5L1016.86 218ZM991.663 215.6H1013.26C1008.46 201.5 1009.06 188 1009.36 173.6C1009.66 168.5 1009.96 163.4 1009.66 158.3C1009.66 140.9 1002.76 126.2 995.263 111.5C987.463 96.2 980.563 81.2 980.563 63.5C980.263 58.1 980.563 53 980.863 47.9C981.163 33.8 981.763 20.3 976.663 5.89999H957.163C955.663 21.8 948.763 35.9 942.163 49.4C940.063 53.6 937.963 57.8 935.863 62.3C928.063 79.4 927.763 95.9 928.663 110.9C929.263 120.8 929.263 128.9 928.063 136.1C927.163 144.8 924.763 152.6 921.463 160.4C919.363 164.9 917.263 169.4 914.863 173.6C908.263 187.4 901.663 200.3 900.163 215.6H922.063C923.563 199.4 930.763 185 937.663 170.9C939.463 167.6 940.963 164.3 942.763 161L943.063 160.1H988.063V161.3C987.763 164.3 987.763 167.3 987.463 170.3C986.863 185.9 986.263 200.6 991.663 215.6ZM985.663 138.8H949.963L950.263 137.6C951.163 128.6 950.863 119.3 950.263 110.6C950.263 107.6 949.963 104.6 949.963 101.3C949.363 88.1 951.463 76.4 956.263 64.7L958.663 65C959.263 81.8 966.463 96.2 973.663 110.9C977.863 119.3 982.063 128 985.063 137.3L985.663 138.8ZM952.663 136.4H982.363C979.363 128 975.463 119.9 971.563 112.1C965.263 99.2 958.663 85.7 956.863 70.4C953.263 80.3 952.063 90.2 952.363 101.3C952.363 104.3 952.663 107.6 952.663 110.6C953.263 119 953.563 127.7 952.663 136.4Z" fill="white"/>
</svg>
