<svg width="251" height="93" viewBox="0 0 251 93" fill="none" xmlns="http://www.w3.org/2000/svg">
<path d="M22.8 57.44C22.16 57.568 21.52 57.568 20.88 57.568C19.216 57.568 17.68 57.568 16.016 57.568C16.912 69.472 9.744 80.096 11.536 92C8.208 92 4.752 92 1.424 92C0.144 83.168 3.472 75.488 5.264 67.04C6.8 60 5.392 53.6 3.472 46.816C1.552 39.904 0.272 33.632 1.808 26.592C3.6 18.016 6.928 10.464 5.648 1.504C10.384 1.504 15.248 1.504 20.112 1.504C27.28 1.632 37.392 4.064 40.72 11.36C43.408 16.992 41.872 23.648 41.104 29.536C40.208 35.552 40.848 42.08 38.8 47.84C37.776 51.04 35.216 53.088 32.4 54.752C35.984 60.768 37.648 66.656 38.672 73.44C39.824 80.224 41.36 86.112 44.816 92C41.104 92 37.392 92 33.808 92.128C30.48 86.624 28.816 80.992 27.792 74.72C26.768 68.704 25.744 62.944 22.8 57.44ZM18.064 47.456C21.904 47.328 27.28 46.432 28.816 42.336C30.352 38.368 30.352 33.76 30.992 29.536C31.504 25.44 32.4 20.832 30.992 16.736C29.584 12.768 23.824 11.744 20.24 11.616C18.704 11.616 17.168 11.616 15.76 11.616C14.48 17.632 12.176 23.52 11.408 29.536C10.512 35.68 12.176 41.568 13.84 47.456C15.248 47.456 16.656 47.456 18.064 47.456ZM76.044 92C70.412 92 64.396 89.952 60.556 85.856C56.588 81.76 55.948 76.256 57.484 71.008C59.148 64.608 59.916 58.72 58.508 52.192C57.228 46.688 55.18 41.44 54.54 35.936C53.132 23.904 60.812 13.152 59.02 0.863998C62.348 0.863998 65.676 0.863998 69.132 0.863998C70.924 13.152 63.244 23.904 64.652 35.936C65.292 41.44 67.34 46.688 68.62 52.192C70.156 58.72 69.388 64.608 67.596 71.008C65.932 76.768 69.644 81.888 75.788 81.888C81.932 81.888 87.82 76.768 89.484 71.008C91.276 64.608 92.044 58.72 90.508 52.192C89.228 46.688 87.18 41.44 86.54 35.936C85.132 23.904 92.812 13.152 91.02 0.863998C94.348 0.863998 97.804 0.863998 101.132 0.863998C102.924 13.152 95.244 23.904 96.652 35.936C97.292 41.44 99.468 46.688 100.62 52.192C102.156 58.72 101.388 64.608 99.596 71.008C96.78 81.248 87.308 92.128 76.044 92ZM115.799 92C114.519 83.168 117.847 75.488 119.639 67.04C121.175 60 119.767 53.6 117.847 46.816C115.927 39.904 114.647 33.632 116.183 26.592C117.975 18.016 121.303 10.464 120.023 1.504C123.351 1.504 126.679 1.504 130.007 1.504C131.159 9.312 128.855 16.096 126.935 23.52C125.271 29.664 125.015 35.424 126.551 41.696C127.959 47.712 130.391 53.728 130.519 60C130.519 67.424 127.319 74.592 125.783 81.888C133.847 81.888 141.911 81.888 149.975 81.888C149.335 85.344 149.335 88.544 149.847 92C138.583 92 127.191 92 115.799 92ZM158.424 92C157.144 83.168 160.472 75.488 162.264 67.04C163.8 60 162.392 53.6 160.472 46.816C158.552 39.904 157.272 33.632 158.808 26.592C160.6 18.016 163.928 10.464 162.648 1.504C173.912 1.504 185.304 1.504 196.696 1.504C197.208 5.088 197.208 8.16 196.696 11.744C188.632 11.744 180.696 11.744 172.76 11.744C171.736 16.736 170.072 21.472 168.92 26.464C167.896 31.584 168.024 36.32 169.176 41.312C175.448 41.312 181.72 41.312 187.992 41.312C188.888 44.768 189.912 48.096 190.808 51.424C184.536 51.424 178.264 51.424 171.992 51.424C173.144 56.672 173.528 61.408 172.504 66.656C171.352 71.776 169.56 76.768 168.536 81.888C176.6 81.888 184.536 81.888 192.472 81.888C191.96 85.344 191.96 88.544 192.472 92C181.208 92 169.816 92 158.424 92ZM222.638 92C216.878 92 211.246 90.72 206.254 87.648C205.87 87.264 205.614 87.136 205.102 86.88C205.23 82.4 206.254 78.176 207.406 73.824C208.43 74.976 209.582 76.128 210.606 77.28C213.806 80.608 218.03 81.888 222.382 81.888C228.654 82.016 234.798 76.64 236.462 70.752C239.534 59.744 228.654 52.192 221.23 46.304C212.654 39.392 202.158 31.456 205.742 19.168C208.43 9.952 216.366 0.223999 226.606 0.223999C232.238 0.351997 237.87 1.632 242.862 4.70399C243.374 4.96 243.63 5.216 244.014 5.47199C244.014 9.952 242.99 14.176 241.71 18.528C240.686 17.376 239.662 16.224 238.51 15.072C235.566 11.616 231.086 10.464 226.734 10.336C221.87 10.336 217.262 14.56 215.854 19.168C213.422 27.616 221.102 34.4 226.734 39.264C236.078 47.2 250.542 56.416 246.574 70.752C243.886 80.352 235.182 90.976 224.686 92C223.918 92 223.406 92 222.638 92Z" fill="#FCFCFC"/>
</svg>
