<svg width="50" height="91" viewBox="0 0 50 91" fill="none" xmlns="http://www.w3.org/2000/svg">
<path d="M34.48 91C31.792 86.136 30.512 81.144 29.872 75.64C29.36 70.392 28.976 65.272 27.44 60.28C22.704 70.904 13.872 79.352 11.312 91C7.728 91 4.144 91 0.56 91C2.352 82.552 7.6 75.768 12.208 68.472C16.816 61.176 18.736 54.264 19.504 45.816C14.768 38.648 10.928 31.864 9.904 23.16C9.008 15.096 8.496 7.8 4.656 0.503998C8.24 0.503998 11.952 0.503998 15.536 0.503998C18.096 5.49599 19.504 10.488 20.016 15.992C20.528 21.24 20.912 26.36 22.448 31.352C27.184 20.728 36.016 12.152 38.576 0.503998C42.16 0.503998 45.872 0.503998 49.456 0.503998C47.536 9.07999 42.288 15.864 37.68 23.16C33.072 30.456 31.152 37.368 30.384 45.816C35.12 52.984 38.96 59.768 39.984 68.472C41.008 76.408 41.392 83.704 45.232 91C41.648 91 38.064 91 34.48 91Z" fill="#FA4848"/>
</svg>
